<svg height="512pt" viewBox="0 0 512 512" width="512pt" xmlns="http://www.w3.org/2000/svg"><path d="m496.902344 169.222656c-1.40625-3.898437-5.703125-5.917968-9.597656-4.511718-3.898438 1.402343-5.917969 5.699218-4.515626 9.597656 8.589844 23.832031 13.304688 48.753906 14.082032 74.191406h-40.523438c-1.835937-49.632812-21.792968-94.710938-53.445312-128.796875l28.757812-28.753906c14.453125 15.398437 27.023438 32.835937 37.246094 52.054687 1.945312 3.65625 6.488281 5.046875 10.144531 3.101563 3.65625-1.945313 5.042969-6.488281 3.097657-10.144531-44.605469-83.863282-131.261719-135.960938-226.148438-135.960938-68.378906 0-132.667969 26.628906-181.019531 74.980469-48.351563 48.351562-74.980469 112.640625-74.980469 181.019531s26.628906 132.667969 74.980469 181.019531c48.351562 48.351563 112.640625 74.980469 181.019531 74.980469s132.667969-26.628906 181.019531-74.980469c48.351563-48.351562 74.980469-112.640625 74.980469-181.019531 0-29.777344-5.078125-58.972656-15.097656-86.777344zm-65.277344 251.796875-28.722656-28.722656c31.652344-34.085937 51.609375-79.164063 53.445312-128.796875h40.523438c-1.792969 59.066406-24.746094 114.484375-65.246094 157.519531zm-312.054688-17.984375c34.6875 32.246094 80.148438 51.523438 128.929688 53.324219v40.511719c-59.066406-1.792969-114.484375-24.746094-157.519531-65.246094zm143.929688 53.308594c49.632812-1.832031 94.710938-21.792969 128.796875-53.441406l28.722656 28.722656c-43.035156 40.5-98.453125 63.453125-157.519531 65.246094zm178-200.34375c0 48.449219-18.679688 92.613281-49.203125 125.6875l-23.714844-23.710938c-2.929687-2.929687-7.679687-2.929687-10.605469 0-2.929687 2.925782-2.929687 7.675782 0 10.605469l23.714844 23.714844c-33.078125 30.523437-77.242187 49.203125-125.691406 49.203125-47.554688 0-92.121094-17.96875-125.804688-49.089844l23.828126-23.828125c2.929687-2.929687 2.929687-7.679687 0-10.605469-2.925782-2.929687-7.675782-2.929687-10.605469 0l-23.804688 23.804688c-10.972656-11.921875-20.511719-25.390625-28.238281-40.226562-1.910156-3.671876-6.441406-5.101563-10.113281-3.1875-3.675781 1.914062-5.101563 6.441406-3.191407 10.117187 8.449219 16.214844 18.882813 30.933594 30.910157 43.925781l-28.605469 28.609375c-40.5-43.035156-63.453125-98.453125-65.246094-157.519531h40.511719c.636719 17.257812 3.476563 34.296875 8.46875 50.757812 1.203125 3.960938 5.390625 6.203126 9.355469 5 3.960937-1.203124 6.199218-5.390624 5-9.355468-5.285156-17.425782-7.964844-35.5625-7.964844-53.902344 0-48.449219 18.679688-92.613281 49.203125-125.6875l23.714844 23.710938c1.464843 1.464843 3.382812 2.199218 5.304687 2.199218 1.917969 0 3.835938-.734375 5.300782-2.199218 2.929687-2.925782 2.929687-7.675782 0-10.605469l-23.714844-23.714844c33.078125-30.523437 77.242187-49.203125 125.691406-49.203125s92.613281 18.679688 125.6875 49.203125l-23.710938 23.714844c-2.929687 2.929687-2.929687 7.679687 0 10.605469 1.460938 1.464843 3.382813 2.199218 5.300782 2.199218 1.917968 0 3.839844-.734375 5.304687-2.199218l23.714844-23.714844c30.523437 33.078125 49.203125 77.242187 49.203125 125.691406zm-361.125-165.019531 28.722656 28.722656c-31.652344 34.085937-51.609375 79.164063-53.441406 128.796875h-40.527344c1.792969-59.066406 24.746094-114.484375 65.246094-157.519531zm183.125-75.859375c59.613281 1.835937 115.332031 25.5 157.558594 65.214844l-28.761719 28.761718c-34.085937-31.652344-79.164063-51.609375-128.796875-53.441406zm-15 40.535156c-49.632812 1.832031-94.710938 21.792969-128.796875 53.441406l-28.722656-28.722656c43.035156-40.5 98.453125-63.453125 157.519531-65.246094zm0 0"/><path d="m476.28125 276.972656c-4.140625 0-7.5 3.355469-7.5 7.5v.113282c0 4.140624 3.359375 7.5 7.5 7.5s7.5-3.359376 7.5-7.5v-.113282c0-4.144531-3.359375-7.5-7.5-7.5zm0 0"/><path d="m468.78125 227.414062v.113282c0 4.144531 3.359375 7.5 7.5 7.5s7.5-3.355469 7.5-7.5v-.113282c0-4.140624-3.359375-7.5-7.5-7.5s-7.5 3.359376-7.5 7.5zm0 0"/><path d="m35.71875 276.972656c-4.140625 0-7.5 3.355469-7.5 7.5v.113282c0 4.140624 3.359375 7.5 7.5 7.5s7.5-3.359376 7.5-7.5v-.113282c0-4.144531-3.359375-7.5-7.5-7.5zm0 0"/><path d="m35.71875 235.027344c4.140625 0 7.5-3.355469 7.5-7.5v-.113282c0-4.140624-3.359375-7.5-7.5-7.5s-7.5 3.359376-7.5 7.5v.113282c0 4.144531 3.359375 7.5 7.5 7.5zm0 0"/><path d="m227.414062 483.78125h.113282c4.144531 0 7.5-3.359375 7.5-7.5s-3.355469-7.5-7.5-7.5h-.113282c-4.140624 0-7.5 3.359375-7.5 7.5s3.359376 7.5 7.5 7.5zm0 0"/><path d="m284.585938 468.78125h-.113282c-4.144531 0-7.5 3.359375-7.5 7.5s3.355469 7.5 7.5 7.5h.113282c4.140624 0 7.5-3.359375 7.5-7.5s-3.359376-7.5-7.5-7.5zm0 0"/><path d="m227.414062 43.21875h.113282c4.144531 0 7.5-3.359375 7.5-7.5s-3.355469-7.5-7.5-7.5h-.113282c-4.140624 0-7.5 3.359375-7.5 7.5s3.359376 7.5 7.5 7.5zm0 0"/><path d="m284.585938 28.21875h-.113282c-4.144531 0-7.5 3.359375-7.5 7.5s3.355469 7.5 7.5 7.5h.113282c4.140624 0 7.5-3.359375 7.5-7.5s-3.359376-7.5-7.5-7.5zm0 0"/><path d="m74.722656 396.851562.082032.082032c1.460937 1.464844 3.382812 2.199218 5.300781 2.199218s3.839843-.734374 5.304687-2.199218c2.929688-2.929688 2.929688-7.675782 0-10.605469l-.082031-.082031c-2.929687-2.929688-7.679687-2.929688-10.605469 0-2.929687 2.929687-2.929687 7.675781 0 10.605468zm0 0"/><path d="m115.066406 437.195312.082032.082032c1.464843 1.464844 3.382812 2.199218 5.304687 2.199218 1.917969 0 3.835937-.734374 5.300781-2.199218 2.929688-2.925782 2.929688-7.675782 0-10.605469l-.082031-.082031c-2.929687-2.929688-7.675781-2.929688-10.605469 0-2.929687 2.929687-2.929687 7.679687 0 10.605468zm0 0"/><path d="m396.933594 85.410156c2.929687-2.929687 2.929687-7.679687 0-10.605468l-.082032-.082032c-2.929687-2.929687-7.679687-2.929687-10.605468 0-2.929688 2.925782-2.929688 7.675782 0 10.605469l.082031.082031c1.460937 1.460938 3.382813 2.195313 5.300781 2.195313 1.921875 0 3.839844-.730469 5.304688-2.195313zm0 0"/><path d="m426.589844 115.066406c-2.929688 2.929688-2.929688 7.679688 0 10.605469l.082031.082031c1.464844 1.464844 3.386719 2.199219 5.304687 2.199219 1.917969 0 3.839844-.734375 5.300782-2.199219 2.929687-2.929687 2.929687-7.675781 0-10.605468l-.082032-.082032c-2.925781-2.929687-7.675781-2.929687-10.605468 0zm0 0"/><path d="m115.066406 85.410156c1.464844 1.460938 3.382813 2.195313 5.304688 2.195313 1.917968 0 3.839844-.730469 5.300781-2.195313l.082031-.082031c2.929688-2.929687 2.929688-7.679687 0-10.605469-2.929687-2.929687-7.675781-2.929687-10.605468 0l-.082032.082032c-2.929687 2.925781-2.929687 7.675781 0 10.605468zm0 0"/><path d="m80.023438 127.953125c1.917968 0 3.839843-.734375 5.304687-2.199219l.082031-.082031c2.929688-2.929687 2.929688-7.675781 0-10.605469-2.929687-2.929687-7.679687-2.929687-10.605468 0l-.082032.082032c-2.929687 2.929687-2.929687 7.679687 0 10.605468 1.464844 1.464844 3.382813 2.199219 5.300782 2.199219zm0 0"/><path d="m426.671875 386.246094-.082031.082031c-2.929688 2.929687-2.929688 7.675781 0 10.605469 1.464844 1.464844 3.382812 2.195312 5.304687 2.195312 1.917969 0 3.835938-.730468 5.300781-2.195312l.082032-.082032c2.929687-2.929687 2.929687-7.679687 0-10.605468-2.925782-2.929688-7.675782-2.929688-10.605469 0zm0 0"/><path d="m396.933594 426.589844c-2.929688-2.929688-7.679688-2.929688-10.605469 0l-.082031.082031c-2.929688 2.929687-2.929688 7.679687 0 10.605469 1.464844 1.464844 3.382812 2.199218 5.300781 2.199218 1.921875 0 3.839844-.734374 5.304687-2.199218l.082032-.082032c2.929687-2.925781 2.929687-7.675781 0-10.605468zm0 0"/><path d="m314.679688 192.640625c-3.378907 2.394531-4.175782 7.078125-1.78125 10.457031 8.300781 11.710938 12.734374 25.441406 12.816406 39.703125.046875 8.261719-1.371094 16.386719-4.121094 24.027344l-9.792969-9.792969c.136719-.304687.277344-.609375.402344-.921875 3.050781-7.421875 3.023437-15.585937-.070313-22.992187-2.726562-6.53125-11.597656-20.445313-35.453124-11.207032l-44.320313-44.320312c7.484375-2.691406 15.453125-4.09375 23.636719-4.09375h.5c11.3125.078125 22.554687 2.972656 32.507812 8.371094 3.640625 1.976562 8.195313.625 10.167969-3.015625 1.976563-3.640625.625-8.195313-3.019531-10.167969-12.109375-6.570312-25.789063-10.089844-39.550782-10.1875-22.78125-.164062-44.160156 8.578125-60.292968 24.601562-16.136719 16.023438-25.023438 37.371094-25.023438 60.113282 0 20.316406 7.304688 39.964844 20.570313 55.328125 2.5 2.898437 6.136719 4.5625 9.972656 4.5625h10.214844v35.964843c0 7.957032 6.472656 14.429688 14.425781 14.429688 4.144531 0 8.09375-1.785156 10.832031-4.898438.667969-.757812 2.085938-2.03125 4.082031-2.03125h29.234376c1.996093 0 3.414062 1.273438 4.082031 2.035157 2.738281 3.109375 6.6875 4.894531 10.832031 4.894531 7.953125 0 14.425781-6.472656 14.425781-14.429688v-35.964843h10.21875c3.832031 0 7.460938-1.660157 9.960938-4.554688 13.386719-15.5 20.695312-35.332031 20.578125-55.835937-.101563-17.355469-5.488282-34.054688-15.578125-48.292969-2.398438-3.378906-7.078125-4.175781-10.457031-1.78125zm-16.386719 46.261719c3.199219 7.65625-.425781 16.484375-8.078125 19.679687-3.710938 1.550781-7.796875 1.5625-11.515625.035157-3.714844-1.523438-6.617188-4.40625-8.164063-8.113282-1.132812-2.707031-3.488281-8.34375 10.394532-14.144531 4.390624-1.835937 7.628906-2.523437 10.039062-2.523437 5.207031 0 6.550781 3.21875 7.324219 5.066406zm11.042969 49.203125h-24.773438c-4.140625 0-7.5 3.355469-7.5 7.5 0 4.140625 3.359375 7.5 7.5 7.5h.394531v34.527343c-3.890625-3.867187-9.042969-6.0625-14.339843-6.0625h-29.234376c-5.296874 0-10.449218 2.191407-14.339843 6.0625v-34.527343h.394531c4.140625 0 7.5-3.359375 7.5-7.5 0-4.144531-3.359375-7.5-7.5-7.5h-24.773438c-10.566406-12.546875-16.378906-28.453125-16.378906-44.890625 0-18.714844 7.3125-36.28125 20.59375-49.46875 3.488282-3.464844 7.28125-6.5 11.308594-9.113282l44.960938 44.960938c-11.5 9.789062-8.671876 21.390625-6.453126 26.691406 3.09375 7.40625 8.882813 13.160156 16.308594 16.207032 3.683594 1.515624 7.546875 2.269531 11.410156 2.269531 3.925782 0 7.851563-.78125 11.582032-2.339844 2.289062-.957031 4.421875-2.171875 6.367187-3.613281l12.203125 12.203125c-1.585937 2.460937-3.328125 4.832031-5.230468 7.09375zm0 0"/><path d="m244.882812 301.789062c-4.140624 0-7.5 3.355469-7.5 7.5v8.144532c0 4.140625 3.359376 7.5 7.5 7.5 4.144532 0 7.5-3.359375 7.5-7.5v-8.144532c0-4.144531-3.355468-7.5-7.5-7.5zm0 0"/><path d="m267.117188 301.789062c-4.144532 0-7.5 3.355469-7.5 7.5v8.144532c0 4.140625 3.355468 7.5 7.5 7.5 4.140624 0 7.5-3.359375 7.5-7.5v-8.144532c0-4.144531-3.359376-7.5-7.5-7.5zm0 0"/><path d="m244.804688 250.425781c0-10.515625-8.558594-19.074219-19.074219-19.074219-10.519531 0-19.074219 8.558594-19.074219 19.074219 0 10.519531 8.554688 19.074219 19.074219 19.074219 10.515625 0 19.074219-8.554688 19.074219-19.074219zm-19.074219 4.074219c-2.246094 0-4.074219-1.828125-4.074219-4.074219 0-2.246093 1.828125-4.074219 4.074219-4.074219 2.246093 0 4.074219 1.828126 4.074219 4.074219 0 2.246094-1.828126 4.074219-4.074219 4.074219zm0 0"/><path d="m207.976562 128.539062c15.328126-5.777343 31.488282-8.710937 48.023438-8.710937s32.695312 2.933594 48.023438 8.710937c.871093.328126 1.765624.484376 2.644531.484376 3.03125 0 5.886719-1.851563 7.019531-4.859376 1.460938-3.875-.496094-8.199218-4.371094-9.660156-17.027344-6.417968-34.964844-9.675781-53.316406-9.675781s-36.289062 3.257813-53.316406 9.675781c-3.875 1.460938-5.832032 5.785156-4.371094 9.660156s5.789062 5.832032 9.664062 4.375zm0 0"/><path d="m304.023438 383.460938c-15.328126 5.777343-31.488282 8.710937-48.023438 8.710937s-32.695312-2.933594-48.023438-8.710937c-3.875-1.460938-8.203124.496093-9.664062 4.375-1.460938 3.875.496094 8.199218 4.371094 9.660156 17.027344 6.417968 34.964844 9.675781 53.316406 9.675781s36.289062-3.257813 53.316406-9.675781c3.875-1.460938 5.832032-5.785156 4.371094-9.660156-1.460938-3.878907-5.789062-5.835938-9.664062-4.375zm0 0"/><path d="m387.835938 313.6875c.871093.328125 1.765624.484375 2.644531.484375 3.03125 0 5.886719-1.851563 7.019531-4.855469 6.417969-17.027344 9.671875-34.964844 9.671875-53.316406s-3.253906-36.289062-9.671875-53.316406c-1.460938-3.875-5.789062-5.832032-9.664062-4.371094s-5.832032 5.785156-4.371094 9.664062c5.777344 15.328126 8.707031 31.488282 8.707031 48.023438s-2.929687 32.695312-8.707031 48.023438c-1.464844 3.878906.496094 8.203124 4.371094 9.664062zm0 0"/><path d="m124.164062 198.3125c-3.875-1.460938-8.203124.496094-9.660156 4.371094-6.417968 17.027344-9.675781 34.964844-9.675781 53.316406s3.257813 36.289062 9.675781 53.316406c1.132813 3.003906 3.984375 4.855469 7.019532 4.855469.878906 0 1.769531-.15625 2.640624-.484375 3.878907-1.460938 5.835938-5.785156 4.375-9.664062-5.777343-15.328126-8.707031-31.488282-8.707031-48.023438s2.929688-32.695312 8.707031-48.023438c1.460938-3.878906-.5-8.203124-4.375-9.664062zm0 0"/></svg>