<svg height="512" viewBox="0 0 16 16" width="512" xmlns="http://www.w3.org/2000/svg"><path d="m11 2c0-1.10303-.896973-2-2-2h-7c-1.10303 0-2 .896973-2 2v7c0 1.10303.896973 2 2 2v-6c0-1.6543 1.3457-3 3-3z" transform="translate(1 1)"/><path d="m9 0h-7c-1.10303 0-2 .896973-2 2v7c0 1.10303.896973 2 2 2h7c1.10303 0 2-.896973 2-2v-7c0-1.10303-.896973-2-2-2zm-5.5 2.5c.552307 0 1 .447693 1 1 0 .552246-.447693 1-1 1s-1-.447754-1-1c0-.552307.447693-1 1-1zm0 6c-.552307 0-1-.447754-1-1 0-.552307.447693-1 1-1s1 .447693 1 1c0 .552246-.447693 1-1 1zm2-2c-.552307 0-1-.447754-1-1 0-.552307.447693-1 1-1s1 .447693 1 1c0 .552246-.447693 1-1 1zm2 2c-.552307 0-1-.447754-1-1 0-.552307.447693-1 1-1s1 .447693 1 1c0 .552246-.447693 1-1 1zm0-4c-.552307 0-1-.447754-1-1 0-.552307.447693-1 1-1s1 .447693 1 1c0 .552246-.447693 1-1 1z" transform="translate(4 4)"/></svg>