<?xml version="1.0" encoding="UTF-8"?>
<svg xmlns="http://www.w3.org/2000/svg" xmlns:xlink="http://www.w3.org/1999/xlink" width="24pt" height="24pt" viewBox="0 0 24 24" version="1.1">
<g id="surface67810">
<path style=" stroke:none;fill-rule:nonzero;fill:rgb(0%,0%,0%);fill-opacity:1;" d="M 0 12 C 0 5.371094 5.371094 0 12 0 C 18.628906 0 24 5.371094 24 12 C 24 18.628906 18.628906 24 12 24 C 5.371094 24 0 18.628906 0 12 Z M 12 23.519531 C 18.363281 23.519531 23.519531 18.363281 23.519531 12 C 23.519531 5.636719 18.363281 0.480469 12 0.480469 C 5.636719 0.480469 0.480469 5.636719 0.480469 12 C 0.480469 18.363281 5.636719 23.519531 12 23.519531 Z M 12 23.519531 "/>
<path style=" stroke:none;fill-rule:nonzero;fill:rgb(0%,0%,0%);fill-opacity:1;" d="M 12 3.101562 C 9.359375 3.101562 7.199219 5.257812 7.199219 7.898438 L 7.199219 8.699219 C 6.316406 8.699219 5.601562 9.414062 5.601562 10.300781 L 5.601562 18.300781 C 5.601562 19.183594 6.316406 19.898438 7.199219 19.898438 L 16.800781 19.898438 C 17.683594 19.898438 18.398438 19.183594 18.398438 18.300781 L 18.398438 10.300781 C 18.398438 9.414062 17.683594 8.699219 16.800781 8.699219 L 16.800781 7.898438 C 16.800781 5.257812 14.640625 3.101562 12 3.101562 Z M 12 4.699219 C 13.773438 4.699219 15.199219 6.125 15.199219 7.898438 L 15.199219 8.699219 L 8.800781 8.699219 L 8.800781 7.898438 C 8.800781 6.125 10.222656 4.699219 12 4.699219 Z M 11.976562 10.273438 C 14.371094 10.273438 14.398438 12.058594 14.398438 12.398438 C 14.398438 14.1875 12.449219 14.289062 12.550781 15.851562 L 11.148438 15.851562 C 11.03125 13.753906 12.824219 13.660156 12.824219 12.476562 C 12.824219 11.625 12.253906 11.550781 11.976562 11.550781 C 11.144531 11.550781 11.101562 12.335938 11.101562 12.5 L 9.523438 12.5 C 9.527344 12.121094 9.605469 10.273438 11.976562 10.273438 Z M 11.875 16.675781 C 12.667969 16.675781 12.75 17.40625 12.75 17.523438 C 12.75 17.640625 12.667969 18.351562 11.875 18.351562 C 11.054688 18.351562 11 17.640625 11 17.523438 C 11 17.40625 11.070312 16.675781 11.875 16.675781 Z M 11.875 16.675781 "/>
</g>
</svg>
