<svg height="512pt" viewBox="-66 0 512 512" width="512pt" xmlns="http://www.w3.org/2000/svg"><path d="m379.46875 388.53125c0-.003906-.003906-.011719-.003906-.015625v-364.449219c0-13.269531-10.796875-24.066406-24.066406-24.066406h-281.632813c-40.671875 0-73.765625 33.09375-73.765625 73.765625v33.132813c0 4.144531 3.355469 7.5 7.5 7.5s7.5-3.355469 7.5-7.5v-33.132813c0-29.859375 22.394531-54.574219 51.265625-58.269531v349.351562c-20.878906 2.117188-39.207031 12.984375-51.265625 28.863282v-256.242188c0-4.144531-3.355469-7.5-7.5-7.5s-7.5 3.355469-7.5 7.5v300.765625c0 40.671875 33.09375 73.765625 73.765625 73.765625h281.632813c13.269531 0 24.066406-10.796875 24.066406-24.066406v-33.09375c0-.015625.003906-.027344.003906-.039063zm-213.800781 97.863281-20.328125-20.332031c-1.410156-1.40625-3.316406-2.195312-5.304688-2.195312-1.988281 0-3.898437.789062-5.304687 2.195312l-20.328125 20.332031v-40.660156h51.265625zm-25.632813-4.421875 15.027344 15.027344h-30.054688zm40.632813-36.238281h9.066406c4.144531 0 7.5-3.359375 7.5-7.5 0-4.144531-3.355469-7.5-7.5-7.5h-99.398437c-4.144532 0-7.5 3.355469-7.5 7.5 0 4.140625 3.355468 7.5 7.5 7.5h9.066406v18.132813h-25.636719c-14.132813 0-25.632813-11.5-25.632813-25.632813 0-14.136719 11.5-25.632813 25.632813-25.632813h281.632813c3.207031 0 6.269531-.628906 9.066406-1.773437v43.992187c-.011719 4.988282-4.070313 9.046876-9.066406 9.046876h-174.730469zm183.796875-421.667969v331.332032c0 5-4.066406 9.066406-9.066406 9.066406h-274.132813v-349.464844h274.132813c5 0 9.066406 4.066406 9.066406 9.066406zm-349.464844 414.167969c0-32.402344 26.359375-58.765625 58.761719-58.765625h.007812 281.628907c3.207031 0 6.269531-.636719 9.070312-1.78125v10.863281c-.011719 4.992188-4.074219 9.050781-9.066406 9.050781l-281.632813-.003906c-22.40625 0-40.632812 18.230469-40.632812 40.632813 0 22.40625 18.226562 40.632812 40.632812 40.632812h25.632813v18.136719h-25.632813c-32.40625 0-58.769531-26.363281-58.769531-58.765625zm340.398438 58.765625h-174.730469v-18.132812h174.730469c3.207031 0 6.265624-.636719 9.066406-1.777344v10.84375c0 5-4.066406 9.066406-9.066406 9.066406zm0 0"/><path d="m106.902344 313.199219c14.132812 0 25.632812 11.5 25.632812 25.632812 0 4.144531 3.355469 7.5 7.5 7.5h165.664063c4.144531 0 7.5-3.355469 7.5-7.5 0-14.132812 11.5-25.632812 25.636719-25.632812 4.140624 0 7.5-3.355469 7.5-7.5v-231.933594c0-4.140625-3.359376-7.5-7.5-7.5-14.136719 0-25.636719-11.496094-25.636719-25.632813 0-4.140624-3.355469-7.5-7.5-7.5h-165.664063c-4.144531 0-7.5 3.359376-7.5 7.5 0 14.136719-11.5 25.632813-25.632812 25.632813-4.144532 0-7.5 3.359375-7.5 7.5v231.933594c0 4.144531 3.355468 7.5 7.5 7.5zm7.5-232.625c16.402344-3.074219 29.363281-16.035157 32.4375-32.441407h152.054687c3.070313 16.40625 16.035157 29.367188 32.4375 32.441407v218.320312c-16.402343 3.070313-29.367187 16.035157-32.4375 32.4375h-152.054687c-3.074219-16.402343-16.035156-29.367187-32.4375-32.4375zm0 0"/><path d="m193.035156 145.816406-4.472656 26.082032c-.484375 2.816406.671875 5.660156 2.980469 7.335937 1.308593.949219 2.855469 1.433594 4.410156 1.433594 1.191406 0 2.390625-.285157 3.488281-.859375l23.425782-12.316406 23.421874 12.316406c2.53125 1.328125 5.59375 1.105468 7.898438-.574219 2.3125-1.675781 3.46875-4.519531 2.984375-7.335937l-4.472656-26.082032 18.949219-18.472656c2.042968-1.992188 2.78125-4.972656 1.898437-7.6875s-3.230469-4.691406-6.054687-5.101562l-26.1875-3.808594-11.714844-23.730469c-1.261719-2.558594-3.871094-4.179687-6.726563-4.179687-2.851562 0-5.460937 1.621093-6.722656 4.179687l-11.714844 23.730469-26.1875 3.808594c-2.824219.410156-5.171875 2.386718-6.054687 5.101562-.882813 2.714844-.148438 5.695312 1.894531 7.6875zm17.453125-20.792968c2.441407-.355469 4.554688-1.890626 5.648438-4.105469l6.730469-13.640625 6.730468 13.640625c1.09375 2.214843 3.203125 3.75 5.644532 4.105469l15.054687 2.1875-10.894531 10.617187c-1.765625 1.722656-2.574219 4.203125-2.15625 6.636719l2.574218 14.992187-13.464843-7.078125c-1.09375-.574218-2.292969-.859375-3.492188-.859375s-2.394531.285157-3.488281.859375l-13.464844 7.078125 2.574219-14.992187c.417969-2.433594-.390625-4.914063-2.15625-6.636719l-10.894531-10.617187zm0 0"/></svg>