<?xml version="1.0" encoding="iso-8859-1"?>
<!-- Generator: Adobe Illustrator 19.0.0, SVG Export Plug-In . SVG Version: 6.00 Build 0)  -->
<svg version="1.1" id="Capa_1" xmlns="http://www.w3.org/2000/svg" xmlns:xlink="http://www.w3.org/1999/xlink" x="0px" y="0px"
	 viewBox="0 0 511.999 511.999" style="enable-background:new 0 0 511.999 511.999;" xml:space="preserve">
<g>
	<g>
		<path d="M498.363,431.979l-45.966-45.966l27.238-27.239h-0.001c5.158-5.157,7.999-12.016,7.999-19.31s-2.841-14.152-7.994-19.305
			l-0.622-0.624c-5.158-5.157-12.016-7.998-19.311-7.998c-7.294,0-14.153,2.841-19.31,7.998l-15.894,15.894l-50.998-65.36
			l84.408-65.862c1.292-1.008,2.219-2.412,2.638-3.998L510.883,9.854c0.683-2.583-0.06-5.334-1.948-7.224
			c-1.89-1.89-4.644-2.627-7.224-1.948L388.239,30.686c-4.007,1.059-6.396,5.166-5.336,9.172c1.06,4.007,5.17,6.397,9.172,5.336
			l101.002-26.706l-46.39,175.44L291.294,315.179c-0.408,0.318-0.774,0.671-1.098,1.05c-1.132,1.328-1.741,2.983-1.786,4.664
			c-0.046,1.682,0.47,3.387,1.586,4.817c0.016,0.02,0.034,0.037,0.05,0.057c0.158,0.199,0.325,0.388,0.498,0.566
			c0.066,0.068,0.138,0.129,0.206,0.194c0.131,0.124,0.263,0.247,0.401,0.36c0.081,0.066,0.164,0.128,0.247,0.19
			c0.134,0.101,0.27,0.199,0.409,0.29c0.087,0.057,0.175,0.112,0.264,0.165c0.145,0.086,0.292,0.166,0.441,0.242
			c0.088,0.045,0.175,0.09,0.264,0.13c0.164,0.075,0.331,0.142,0.499,0.204c0.078,0.029,0.155,0.062,0.234,0.089
			c0.228,0.077,0.46,0.143,0.694,0.198c0.02,0.005,0.039,0.012,0.059,0.016c0.259,0.058,0.521,0.101,0.784,0.132
			c0.064,0.007,0.128,0.009,0.191,0.014c0.197,0.018,0.395,0.031,0.593,0.033c0.028,0,0.055,0.005,0.083,0.005
			c0.035,0,0.07-0.008,0.105-0.009c0.363-0.005,0.727-0.03,1.087-0.088c0.007-0.001,0.013-0.001,0.02-0.002
			c0.362-0.059,0.719-0.153,1.072-0.266c0.062-0.02,0.124-0.038,0.185-0.06c0.339-0.119,0.671-0.262,0.996-0.432
			c0.059-0.031,0.115-0.065,0.173-0.097c0.333-0.186,0.66-0.391,0.97-0.633l9.16-7.147l65.191,65.19l-28.324,28.324l-78.356-61.141
			l10.1-7.881c1.838-1.434,2.825-3.554,2.884-5.715c0.046-1.681-0.47-3.387-1.586-4.817c-2.55-3.265-7.263-3.848-10.531-1.3
			l-103.618,80.853l-28.324-28.324l243.958-243.957c2.93-2.931,2.93-7.681,0-10.611c-2.93-2.928-7.68-2.93-10.611,0L126.51,374.442
			l-28.286-28.287l57.28-72.252c0.001-0.002,0.003-0.003,0.004-0.004l22.591-28.496l50.827-5.116
			c2.761-0.277,5.143-2.057,6.193-4.625c1.051-2.567,0.598-5.506-1.176-7.639l-21.297-25.595l35.089-44.835l21.14-3.669
			c0.001,0,0.002-0.001,0.003-0.001l17.424-3.024c3.499-0.607,6.094-3.585,6.216-7.133l1.554-44.888l23.782-34.057l41.965-11.097
			c4.007-1.059,6.396-5.166,5.336-9.172c-1.06-4.007-5.171-6.396-9.172-5.336l-44.624,11.8c-1.718,0.454-3.217,1.503-4.235,2.958
			l-26.627,38.131c-0.828,1.188-1.297,2.589-1.347,4.036l-1.42,41.014l-6.99,1.214l-66.103-84.715
			c-1.008-1.292-2.413-2.219-3.998-2.638L10.287,0.681C7.707,0.001,4.952,0.74,3.064,2.63C1.175,4.519,0.432,7.27,1.116,9.854
			l23.881,90.315c1.059,4.007,5.172,6.396,9.172,5.336c4.007-1.059,6.396-5.166,5.336-9.172L18.92,18.486l175.441,46.391
			l59.616,76.4l-11.653,2.023c-1.832,0.318-3.48,1.305-4.626,2.769l-35.378,45.205l-60.791-60.79c-2.931-2.929-7.681-2.929-10.611,0
			c-2.93,2.931-2.93,7.681,0,10.611l66.543,66.542l15.918,19.13l-39.939,4.021c-2.019,0.202-3.868,1.214-5.128,2.804l-19.937,25.149
			l-83.063-64.813L47.83,127.818c-1.059-4.007-5.164-6.398-9.172-5.336c-4.007,1.059-6.396,5.166-5.336,9.172l18.127,68.554
			c0.419,1.586,1.347,2.989,2.639,3.998l84.964,66.296l-51.51,64.973l-15.94-15.941c-10.646-10.644-27.97-10.647-38.623,0.005
			l-0.613,0.614c-5.158,5.157-7.999,12.016-7.999,19.31s2.841,14.152,7.998,19.31l27.238,27.239l-45.966,45.966
			c-18.183,18.183-18.183,47.768,0,65.951c9.092,9.091,21.033,13.637,32.975,13.637c11.942,0,23.883-4.546,32.975-13.637
			l45.966-45.966l27.239,27.239c0.001,0,0.001,0,0.001,0c5.323,5.322,12.314,7.983,19.308,7.983c6.993,0,13.989-2.663,19.316-7.988
			l0.613-0.614c5.158-5.157,7.999-12.016,7.999-19.31c0-7.294-2.841-14.152-7.998-19.311l-15.892-15.892l79.862-62.315
			l79.861,62.315l-15.892,15.892c-10.647,10.647-10.647,27.973-0.004,38.616l0.623,0.624c5.323,5.322,12.317,7.985,19.309,7.985
			c6.993,0,13.986-2.662,19.311-7.985l27.238-27.239l45.966,45.966c9.092,9.091,21.033,13.637,32.975,13.637
			s23.883-4.546,32.975-13.637C516.544,479.747,516.544,450.16,498.363,431.979z M24.248,487.317
			c-11.309-11.308-12.239-29.115-2.806-41.502l44.309,44.309C53.364,499.555,35.554,498.626,24.248,487.317z M76.57,479.72
			l-44.726-44.727l14.194-14.194l44.727,44.726L76.57,479.72z M101.377,454.914l-44.728-44.727l13.564-13.565l44.728,44.728
			L101.377,454.914z M181.418,450.575c2.324,2.322,3.604,5.411,3.604,8.698c0,3.285-1.28,6.375-3.608,8.703l-0.613,0.614
			c-4.797,4.795-12.602,4.797-17.399,0h0.001l-32.545-32.545l-55.337-55.338c-0.003-0.003-0.007-0.006-0.01-0.009l-32.536-32.536
			c-2.323-2.323-3.603-5.412-3.603-8.698s1.279-6.375,3.607-8.703l0.613-0.614c4.796-4.797,12.602-4.798,17.398,0l21.894,21.894
			l76.64,76.64L181.418,450.575z M321.606,310.561l40.067-31.263l52.138,66.821l-28.323,28.323L321.606,310.561z M381.138,436.043
			c-0.002,0.001-0.003,0.003-0.004,0.005l-32.539,32.542c-4.799,4.795-12.603,4.794-17.394,0.005l-0.622-0.624
			c-4.797-4.796-4.797-12.601,0-17.397l21.891-21.891c0.001-0.001,0.001-0.001,0.002-0.002l76.64-76.64
			c0.003-0.003,0.005-0.006,0.008-0.009l21.886-21.886c2.323-2.323,5.412-3.604,8.698-3.604c3.286,0,6.376,1.28,8.695,3.599
			l0.623,0.624c2.323,2.323,3.604,5.412,3.604,8.698c0,3.285-1.28,6.375-3.604,8.698c0,0,0,0-0.001,0l-32.54,32.54
			c-0.002,0.002-0.004,0.003-0.006,0.005L381.138,436.043z M397.057,441.352l44.728-44.728l13.564,13.565l-44.728,44.727
			L397.057,441.352z M421.232,465.526l44.727-44.726l14.194,14.194l-44.726,44.726L421.232,465.526z M487.75,487.317
			c-11.307,11.309-29.114,12.238-41.501,2.806l44.309-44.309C499.989,458.202,499.06,476.009,487.75,487.317z"/>
	</g>
</g>
<g>
</g>
<g>
</g>
<g>
</g>
<g>
</g>
<g>
</g>
<g>
</g>
<g>
</g>
<g>
</g>
<g>
</g>
<g>
</g>
<g>
</g>
<g>
</g>
<g>
</g>
<g>
</g>
<g>
</g>
</svg>
